{
  "accessors": [
    {
      "bufferView": 2,
      "componentType": 5126,
      "count": 1677,
      "max": [
        0.9847239255905151,
        0.9187685251235962,
        0.9847239851951599
      ],
      "min": [
        -0.9847240447998047,
        -0.9758220911026001,
        -0.984724223613739
      ],
      "type": "VEC3"
    },
    {
      "bufferView": 2,
      "byteOffset": 20124,
      "componentType": 5126,
      "count": 1677,
      "max": [
        1.0,
        0.9999403357505798,
        1.0
      ],
      "min": [
        -1.0,
        -1.0,
        -1.0
      ],
      "type": "VEC3"
    },
    {
      "bufferView": 1,
      "componentType": 5126,
      "count": 1677,
      "max": [
        1.0000001192092896,
        1.0
      ],
      "min": [
        0.0,
        0.0
      ],
      "type": "VEC2"
    },
    {
      "bufferView": 0,
      "componentType": 5125,
      "count": 9360,
      "type": "SCALAR"
    },
    {
      "bufferView": 2,
      "byteOffset": 40248,
      "componentType": 5126,
      "count": 441,
      "max": [
        1.5564261674880981,
        0.4795471429824829,
        1.6016967296600342
      ],
      "min": [
        -1.5564265251159668,
        -0.5000002384185791,
        -1.5575346946716309
      ],
      "type": "VEC3"
    },
    {
      "bufferView": 2,
      "byteOffset": 45540,
      "componentType": 5126,
      "count": 441,
      "max": [
        1.0,
        0.9920557737350464,
        0.9996744394302368
      ],
      "min": [
        -1.0,
        -0.9996707439422607,
        -0.9995466470718384
      ],
      "type": "VEC3"
    },
    {
      "bufferView": 1,
      "byteOffset": 13416,
      "componentType": 5126,
      "count": 441,
      "max": [
        1.0000001192092896,
        1.0
      ],
      "min": [
        0.0,
        -1.564621925354004e-07
      ],
      "type": "VEC2"
    },
    {
      "bufferView": 0,
      "byteOffset": 37440,
      "componentType": 5125,
      "count": 2400,
      "type": "SCALAR"
    },
    {
      "bufferView": 2,
      "byteOffset": 50832,
      "componentType": 5126,
      "count": 252,
      "max": [
        0.7558047771453857,
        1.0295966863632202,
        0.7558048963546753
      ],
      "min": [
        -0.7558050155639648,
        -0.5824621915817261,
        -0.755805253982544
      ],
      "type": "VEC3"
    },
    {
      "bufferView": 2,
      "byteOffset": 53856,
      "componentType": 5126,
      "count": 252,
      "max": [
        0.9901854991912842,
        0.3714209198951721,
        0.9906685948371887
      ],
      "min": [
        -0.9914253354072571,
        -1.0,
        -0.990897536277771
      ],
      "type": "VEC3"
    },
    {
      "bufferView": 1,
      "byteOffset": 16944,
      "componentType": 5126,
      "count": 252,
      "max": [
        0.65625,
        0.6884397268295288
      ],
      "min": [
        0.3437499701976776,
        -7.450580596923828e-08
      ],
      "type": "VEC2"
    },
    {
      "bufferView": 0,
      "byteOffset": 47040,
      "componentType": 5125,
      "count": 1260,
      "type": "SCALAR"
    },
    {
      "bufferView": 2,
      "byteOffset": 56880,
      "componentType": 5126,
      "count": 101,
      "max": [
        0.47779685258865356,
        1.229439616203308,
        0.4798645079135895
      ],
      "min": [
        -0.48221203684806824,
        1.0260742902755737,
        -0.4798649251461029
      ],
      "type": "VEC3"
    },
    {
      "bufferView": 2,
      "byteOffset": 58092,
      "componentType": 5126,
      "count": 101,
      "max": [
        0.7632784843444824,
        1.0,
        0.7803751230239868
      ],
      "min": [
        -0.7853175401687622,
        0.5790019631385803,
        -0.7642338871955872
      ],
      "type": "VEC3"
    },
    {
      "bufferView": 1,
      "byteOffset": 18960,
      "componentType": 5126,
      "count": 101,
      "max": [
        0.65625,
        1.0
      ],
      "min": [
        0.3437499701976776,
        0.6874999403953552
      ],
      "type": "VEC2"
    },
    {
      "bufferView": 0,
      "byteOffset": 52080,
      "componentType": 5125,
      "count": 540,
      "type": "SCALAR"
    }
  ],
  "asset": {
    "extras": {
      "author": "NiklasG (https://sketchfab.com/NiklasG)",
      "license": "CC-BY-4.0 (http://creativecommons.org/licenses/by/4.0/)",
      "source": "https://sketchfab.com/3d-models/teatime-orange-fd47e62e36d74e8580616d60d935a99b",
      "title": "Teatime_orange"
    },
    "generator": "Sketchfab-12.68.0",
    "version": "2.0"
  },
  "bufferViews": [
    {
      "buffer": 0,
      "byteLength": 54240,
      "name": "floatBufferViews",
      "target": 34963
    },
    {
      "buffer": 0,
      "byteLength": 19768,
      "byteOffset": 54240,
      "byteStride": 8,
      "name": "floatBufferViews",
      "target": 34962
    },
    {
      "buffer": 0,
      "byteLength": 59304,
      "byteOffset": 74008,
      "byteStride": 12,
      "name": "floatBufferViews",
      "target": 34962
    }
  ],
  "buffers": [
    {
      "byteLength": 133312,
      "uri": "scene.bin"
    }
  ],
  "images": [
    {
      "uri": "textures/blinn2_baseColor.jpeg"
    }
  ],
  "materials": [
    {
      "doubleSided": true,
      "name": "blinn2",
      "pbrMetallicRoughness": {
        "baseColorTexture": {
          "index": 0
        },
        "metallicFactor": 0.0,
        "roughnessFactor": 0.9006127648762414
      }
    },
    {
      "doubleSided": true,
      "name": "lambert7",
      "pbrMetallicRoughness": {
        "baseColorFactor": [
          0.260113,
          0.5,
          0.0545,
          1.0
        ],
        "metallicFactor": 0.0,
        "roughnessFactor": 0.6
      }
    },
    {
      "doubleSided": true,
      "name": "lambert8",
      "pbrMetallicRoughness": {
        "baseColorFactor": [
          0.147899,
          0.29,
          0.0261,
          1.0
        ],
        "metallicFactor": 0.0,
        "roughnessFactor": 0.6
      }
    },
    {
      "doubleSided": true,
      "name": "lambert9",
      "pbrMetallicRoughness": {
        "baseColorFactor": [
          0.615,
          0.552964,
          0.201105,
          1.0
        ],
        "metallicFactor": 0.0,
        "roughnessFactor": 0.6
      }
    }
  ],
  "meshes": [
    {
      "name": "pSphere7_blinn2_0",
      "primitives": [
        {
          "attributes": {
            "NORMAL": 1,
            "POSITION": 0,
            "TEXCOORD_0": 2
          },
          "indices": 3,
          "material": 0,
          "mode": 4
        }
      ]
    },
    {
      "name": "pTorus1_lambert7_0",
      "primitives": [
        {
          "attributes": {
            "NORMAL": 5,
            "POSITION": 4,
            "TEXCOORD_0": 6
          },
          "indices": 7,
          "material": 1,
          "mode": 4
        }
      ]
    },
    {
      "name": "pCylinder12_lambert8_0",
      "primitives": [
        {
          "attributes": {
            "NORMAL": 9,
            "POSITION": 8,
            "TEXCOORD_0": 10
          },
          "indices": 11,
          "material": 2,
          "mode": 4
        }
      ]
    },
    {
      "name": "pCylinder12_lambert9_0",
      "primitives": [
        {
          "attributes": {
            "NORMAL": 13,
            "POSITION": 12,
            "TEXCOORD_0": 14
          },
          "indices": 15,
          "material": 3,
          "mode": 4
        }
      ]
    }
  ],
  "nodes": [
    {
      "children": [
        1
      ],
      "matrix": [
        1.0,
        0.0,
        0.0,
        0.0,
        0.0,
        2.220446049250313e-16,
        -1.0,
        0.0,
        0.0,
        1.0,
        2.220446049250313e-16,
        0.0,
        0.0,
        0.0,
        0.0,
        1.0
      ],
      "name": "Sketchfab_model"
    },
    {
      "children": [
        2
      ],
      "matrix": [
        1.0,
        0.0,
        0.0,
        0.0,
        0.0,
        0.0,
        1.0,
        0.0,
        0.0,
        -1.0,
        0.0,
        0.0,
        0.0,
        0.0,
        0.0,
        1.0
      ],
      "name": "fc72edfee5ba4ba2bb21f7bd10930ca0.fbx"
    },
    {
      "children": [
        3
      ],
      "name": "RootNode"
    },
    {
      "children": [
        4,
        5,
        7
      ],
      "matrix": [
        0.5927123507359469,
        0.2012173757933113,
        0.0,
        0.0,
        -0.1933875707891262,
        0.5696486261866235,
        0.0,
        0.0,
        0.0,
        0.0,
        0.6259363889694214,
        0.0,
        0.7994093298912048,
        5.825872421264648,
        1.3244823217391968,
        1.0
      ],
      "name": "pSphere7"
    },
    {
      "mesh": 0,
      "name": "pSphere7_blinn2_0"
    },
    {
      "children": [
        6
      ],
      "matrix": [
        0.06721118837594986,
        -3.46944686062778e-18,
        0.0,
        0.0,
        3.609916850044075e-18,
        0.06993241608142853,
        0.0,
        0.0,
        0.0,
        0.0,
        0.06721118837594986,
        0.0,
        -2.2617528884438798e-05,
        0.9326590299606323,
        0.0004236199602019042,
        1.0
      ],
      "name": "pTorus1"
    },
    {
      "mesh": 1,
      "name": "pTorus1_lambert7_0"
    },
    {
      "children": [
        8,
        9
      ],
      "matrix": [
        0.07115186379552986,
        -0.009650423565209794,
        0.0,
        0.0,
        0.0061005552592294605,
        0.0449789456337051,
        0.0,
        0.0,
        0.0,
        0.0,
        0.07175382226705551,
        0.0,
        0.004300338216125965,
        0.9769976735115051,
        0.0004236199602019042,
        1.0
      ],
      "name": "pCylinder12"
    },
    {
      "mesh": 2,
      "name": "pCylinder12_lambert8_0"
    },
    {
      "mesh": 3,
      "name": "pCylinder12_lambert9_0"
    }
  ],
  "samplers": [
    {
      "magFilter": 9729,
      "minFilter": 9987,
      "wrapS": 10497,
      "wrapT": 10497
    }
  ],
  "scene": 0,
  "scenes": [
    {
      "name": "Sketchfab_Scene",
      "nodes": [
        0
      ]
    }
  ],
  "textures": [
    {
      "sampler": 0,
      "source": 0
    }
  ]
}
